<?xml version="1.0" ?><svg id="Layer_3" style="enable-background:new 0 0 64 64;" version="1.0" viewBox="0 0 64 64" xml:space="preserve" xmlns="http://www.w3.org/2000/svg" xmlns:xlink="http://www.w3.org/1999/xlink"><path d="M32,2.47C15.61,2.47,2.27,15.81,2.27,32.2c0,14.59,10.44,26.92,24.82,29.32c0.05,0.01,0.11,0.01,0.16,0.01  c0.24,0,0.46-0.08,0.65-0.24c0.22-0.19,0.35-0.47,0.35-0.76V40.37c0-0.55-0.45-1-1-1H21V33.2h6.25c0.55,0,1-0.45,1-1v-7.41  c0-5.18,4.22-9.4,9.41-9.4h5.62c0.64,0,1.16,0.52,1.16,1.16v5.12H40.8c-2.4,0-4.36,1.95-4.36,4.36v6.17c0,0.55,0.45,1,1,1h6.81  l-1.09,6.17h-5.74c-0.55,0-1,0.45-1,1l-0.06,20.05c0,0.3,0.13,0.58,0.36,0.77c0.23,0.19,0.53,0.27,0.83,0.21  c14.02-2.64,24.19-14.93,24.19-29.21C61.73,15.81,48.39,2.47,32,2.47z M38.36,59.19l0.06-17.82H44c0.49,0,0.9-0.35,0.99-0.83  l1.44-8.17c0.05-0.29-0.03-0.59-0.22-0.82c-0.19-0.23-0.47-0.36-0.77-0.36h-7v-5.17c0-1.3,1.06-2.36,2.36-2.36h4.64  c0.55,0,1-0.45,1-1v-6.12c0-1.74-1.42-3.16-3.16-3.16h-5.62c-6.29,0-11.41,5.11-11.41,11.4v6.41H20c-0.55,0-1,0.45-1,1v8.17  c0,0.55,0.45,1,1,1h6.25v17.96C13.44,56.64,4.27,45.42,4.27,32.2C4.27,16.91,16.71,4.47,32,4.47S59.73,16.91,59.73,32.2  C59.73,45.11,50.81,56.27,38.36,59.19z"/></svg>