<svg height="100%" id="svg11" style="fill-rule:evenodd;clip-rule:evenodd;stroke-linejoin:round;stroke-miterlimit:2;" version="1.1" viewBox="0 0 64 64" width="100%" xml:space="preserve" xmlns="http://www.w3.org/2000/svg" xmlns:cc="http://creativecommons.org/ns#" xmlns:dc="http://purl.org/dc/elements/1.1/" xmlns:inkscape="http://www.inkscape.org/namespaces/inkscape" xmlns:rdf="http://www.w3.org/1999/02/22-rdf-syntax-ns#" xmlns:sodipodi="http://sodipodi.sourceforge.net/DTD/sodipodi-0.dtd" xmlns:svg="http://www.w3.org/2000/svg"><defs id="defs15"/><path d="m 32.999958,7.0001217 c -0.552002,0 -1.000003,0.4480014 -1.000003,1.0000031 V 42.00023 c 0,2.760009 -2.240007,5.000016 -5.000016,5.000016 -2.760008,0 -5.000015,-2.240007 -5.000015,-5.000016 0,-2.760008 2.240007,-5.000015 5.000015,-5.000015 0.552002,0 1.000003,-0.448002 1.000003,-1.000003 v -8.000025 c 0,-0.552002 -0.448001,-1.000003 -1.000003,-1.000003 -8.279025,0 -15.000046,6.721021 -15.000046,15.000046 0,8.279026 6.721021,15.000047 15.000046,15.000047 8.279026,0 15.000047,-6.721021 15.000047,-15.000047 V 25.494179 c 2.136006,0.967003 4.505014,1.506005 7.000021,1.506005 0,0 2.000007,0 2.000007,0 0.552001,0 1.000003,-0.448002 1.000003,-1.000003 v -8.000025 c 0,-0.552002 -0.448002,-1.000003 -1.000003,-1.000003 h -2.000007 c -3.863012,0 -7.000021,-3.13701 -7.000021,-7.000022 V 8.0001248 c 0,-0.5520017 -0.448002,-1.0000031 -1.000003,-1.0000031 z m 1.000003,2.0000062 h 6.000018 c 0,0 0,1.0000031 0,1.0000031 0,4.967015 4.033013,9.000028 9.000028,9.000028 h 1.000004 c 0,0 0,6.000018 0,6.000018 0,0 -1.000004,0 -1.000004,0 -2.731008,0 -5.292016,-0.731002 -7.499023,-2.009006 -0.309001,-0.179 -0.691002,-0.179 -1.000003,-0.001 -0.310001,0.179001 -0.501002,0.509002 -0.501002,0.867003 V 42.00023 c 0,7.175022 -5.825018,13.000041 -13.00004,13.000041 -7.175022,0 -13.00004,-5.825019 -13.00004,-13.000041 0,-6.838021 5.292016,-12.451038 12.000037,-12.96204 0,0 0,6.033019 0,6.033019 -3.39001,0.486001 -6.000018,3.40501 -6.000018,6.929021 0,3.863012 3.137009,7.000022 7.000021,7.000022 3.863012,0 7.000022,-3.13701 7.000022,-7.000022 z" id="path4" style="stroke-width:1;fill:#000000"/></svg>