<?xml version="1.0" ?><svg id="Layer_3" style="enable-background:new 0 0 64 64;" version="1.0" viewBox="0 0 64 64" xml:space="preserve" xmlns="http://www.w3.org/2000/svg" xmlns:xlink="http://www.w3.org/1999/xlink"><g><path d="M49.41,0.38H14.59c-7.84,0-14.21,6.38-14.21,14.21v34.82c0,7.84,6.38,14.21,14.21,14.21h34.82   c7.84,0,14.21-6.38,14.21-14.21V14.59C63.63,6.75,57.25,0.38,49.41,0.38z M61.63,49.41c0,6.73-5.48,12.21-12.21,12.21H14.59   c-6.73,0-12.21-5.48-12.21-12.21V14.59c0-6.73,5.48-12.21,12.21-12.21h34.82c6.73,0,12.21,5.48,12.21,12.21V49.41z"/><path d="M46.68,5.18H17.32c-6.69,0-12.14,5.45-12.14,12.14v29.36c0,6.7,5.45,12.14,12.14,12.14h29.36c6.7,0,12.14-5.45,12.14-12.14   V17.32C58.82,10.62,53.38,5.18,46.68,5.18z M56.82,46.68c0,5.59-4.55,10.14-10.14,10.14H17.32c-5.59,0-10.14-4.55-10.14-10.14   V17.32c0-5.59,4.55-10.14,10.14-10.14h29.36c5.59,0,10.14,4.55,10.14,10.14V46.68z"/><path d="M32,14.94c-9.41,0-17.06,7.65-17.06,17.06S22.59,49.06,32,49.06S49.06,41.41,49.06,32S41.41,14.94,32,14.94z M32,47.06   c-8.31,0-15.06-6.76-15.06-15.06S23.69,16.94,32,16.94S47.06,23.69,47.06,32S40.31,47.06,32,47.06z"/><path d="M32,20.65c-6.26,0-11.35,5.09-11.35,11.35c0,6.26,5.09,11.35,11.35,11.35c6.26,0,11.35-5.09,11.35-11.35   C43.35,25.74,38.26,20.65,32,20.65z M32,41.35c-5.15,0-9.35-4.19-9.35-9.35s4.19-9.35,9.35-9.35s9.35,4.19,9.35,9.35   S37.15,41.35,32,41.35z"/><path d="M49.11,10.71c-2.6,0-4.72,2.12-4.72,4.72c0,2.6,2.12,4.72,4.72,4.72s4.72-2.12,4.72-4.72   C53.82,12.82,51.71,10.71,49.11,10.71z M49.11,18.14c-1.5,0-2.72-1.22-2.72-2.72s1.22-2.72,2.72-2.72c1.5,0,2.72,1.22,2.72,2.72   S50.6,18.14,49.11,18.14z"/></g></svg>