<?xml version="1.0" ?><svg id="Layer_3" style="enable-background:new 0 0 64 64;" version="1.0" viewBox="0 0 64 64" xml:space="preserve" xmlns="http://www.w3.org/2000/svg" xmlns:xlink="http://www.w3.org/1999/xlink"><path d="M58.12,15.24c-0.28-0.34-0.74-0.45-1.15-0.29c-0.73,0.3-1.47,0.56-2.22,0.78c0.03-0.03,0.05-0.06,0.08-0.09  c0.86-1.05,1.49-2.25,1.88-3.55c0.12-0.42-0.04-0.87-0.4-1.11c-0.36-0.24-0.84-0.22-1.18,0.05c-1.2,0.96-2.54,1.61-3.98,1.94  c-0.58,0.13-1.18,0.21-1.79,0.22c-0.55-0.54-1.17-1.03-1.85-1.47c-0.63-0.39-1.22-0.69-1.8-0.92c-0.16-0.06-0.44-0.17-0.8-0.28  c-0.6-0.19-1.23-0.33-1.84-0.41c-0.49-0.07-1.01-0.11-1.55-0.11c-6.19,0-11.22,5.03-11.22,11.22c0,0.14,0,0.28,0.01,0.42  c-0.43,0.04-0.87,0.07-1.31,0.09c0,0-0.82,0.03-1.62,0c-2.98-0.11-5.92-1.09-5.95-1.1c-2.25-0.76-4.35-1.88-6.24-3.33  c-1.57-1.21-2.97-2.63-4.14-4.22c-0.39-0.52-0.76-1.08-1.1-1.64c-0.18-0.3-0.5-0.48-0.85-0.48c-0.33-0.03-0.67,0.17-0.86,0.47  c-0.78,1.24-1.32,2.63-1.61,4.11c-0.14,0.76-0.22,1.53-0.22,2.29c0,1.23,0.19,2.45,0.56,3.64c0.43,1.38,1.12,2.68,2,3.82  c-0.48-0.19-0.95-0.42-1.4-0.68c-0.31-0.18-0.69-0.18-1-0.01s-0.5,0.51-0.5,0.87c0,3.16,1.21,6.15,3.42,8.42  c0.56,0.59,1.18,1.11,1.84,1.57c-0.1-0.02-0.2-0.04-0.3-0.06c-0.35-0.07-0.72,0.05-0.95,0.32c-0.24,0.27-0.31,0.65-0.2,0.99  c1.35,3.93,4.64,6.85,8.58,7.83c-2.98,1.87-6.46,2.88-10,2.88c-0.58,0-1.16-0.03-1.72-0.08c-0.45-0.04-0.89,0.23-1.04,0.66  c-0.15,0.43,0.01,0.92,0.39,1.17c2.03,1.33,4.21,2.41,6.52,3.22c0.2,0.07,5.02,1.62,9.79,1.65c0.03,0,0.06,0,0.09,0  c1.88,0,8.1-0.33,14.87-4.27c2.9-1.69,12.54-8.11,15.04-20.02c0.54-2.58,0.71-5.24,0.51-7.92c0.63-0.42,1.24-0.89,1.81-1.38  c1.34-1.15,2.51-2.5,3.48-4.01C58.43,16.05,58.4,15.57,58.12,15.24z M53.41,18.91c-0.65,0.56-1.35,1.08-2.08,1.53  c-0.32,0.2-0.5,0.57-0.47,0.95c0.26,2.68,0.12,5.34-0.42,7.92c-2.33,11.1-11.37,17.12-14.09,18.7c-6.44,3.75-12.28,4-13.94,4  c-4.35-0.02-8.88-1.45-9.17-1.55c-0.96-0.33-1.89-0.72-2.81-1.16c4.12-0.39,8.07-2.02,11.28-4.66c0.32-0.27,0.44-0.7,0.31-1.1  s-0.5-0.66-0.92-0.67c-3.65-0.09-6.94-2.16-8.65-5.29c1.18,0.06,2.35-0.05,3.44-0.31c0.45-0.11,0.77-0.51,0.77-0.97  s-0.32-0.86-0.77-0.97c-1.89-0.45-3.6-1.43-4.95-2.83C9.49,31,8.55,29.14,8.21,27.13c1.11,0.44,2.28,0.71,3.45,0.8  c0.12,0.02,0.24,0.03,0.37,0.03l0.1,0.01c0.47,0.04,0.87-0.25,1.01-0.68c0.15-0.43-0.02-0.91-0.4-1.16  c-0.07-0.04-0.13-0.09-0.22-0.15c-1.71-1.26-3-3.08-3.64-5.11c-0.31-0.99-0.46-2.02-0.46-3.04c0-0.64,0.06-1.28,0.18-1.91  c0.13-0.69,0.33-1.35,0.59-1.98c0.08,0.11,0.16,0.22,0.24,0.33c1.28,1.73,2.8,3.29,4.53,4.61c2.06,1.59,4.36,2.82,6.82,3.65  c0.13,0.04,3.23,1.08,6.51,1.2c0.87,0.03,1.74,0,1.78,0c0.82-0.03,1.64-0.1,2.44-0.22c0.54-0.08,0.91-0.57,0.85-1.1  c-0.05-0.43-0.07-0.81-0.07-1.18c0-5.08,4.14-9.22,9.22-9.22c0.44,0,0.86,0.03,1.26,0.09c0.52,0.07,1.03,0.19,1.53,0.34  c0.3,0.09,0.53,0.18,0.66,0.24c0.47,0.18,0.95,0.43,1.47,0.75c0.66,0.42,1.26,0.91,1.77,1.46c0.19,0.2,0.45,0.31,0.72,0.32  c0.9,0.01,1.79-0.08,2.66-0.28c0.57-0.13,1.13-0.3,1.68-0.51c-0.76,0.92-1.74,1.68-2.83,2.2c-0.44,0.21-0.67,0.7-0.54,1.17  c0.13,0.47,0.57,0.78,1.06,0.73c0.44-0.04,0.9-0.1,1.37-0.17c0.73-0.11,1.46-0.26,2.18-0.45C54.15,18.23,53.79,18.58,53.41,18.91z"/></svg>